HIERARCHY
ROOT hip
{
	OFFSET 0.000000 0.000000 0.000000 
	CHANNELS 6 Xposition Yposition Zposition Xrotation Zrotation Yrotation
	JOINT abdomen
	{
		OFFSET 0.000000 3.402643 0.000000 
		CHANNELS 3 Xrotation Zrotation Yrotation
		JOINT chest
		{
			OFFSET 0.000000 8.438565 -0.680529 
			CHANNELS 3 Xrotation Zrotation Yrotation
			JOINT neck
			{
				OFFSET 0.000000 10.207942 -0.272212 
				CHANNELS 3 Xrotation Zrotation Yrotation
				JOINT head
				{
					OFFSET 0.000000 3.130431 0.000000 
					CHANNELS 3 Xrotation Zrotation Yrotation
					End Site
					{
						OFFSET 0.000000 3.130435 0.000000 
					}
				}
			}
			JOINT lCollar
			{
				OFFSET 3.470700 6.669187 -0.816635 
				CHANNELS 3 Yrotation Zrotation Xrotation
				JOINT lShldr
				{
					OFFSET 3.198488 0.000000 0.000000 
					CHANNELS 3 Zrotation Yrotation Xrotation
					JOINT lForeArm
					{
						OFFSET 10.139888 0.000000 0.000000 
						CHANNELS 3 Yrotation Zrotation Xrotation
						JOINT lHand
						{
							OFFSET 8.370511 0.000000 0.000000 
							CHANNELS 3 Zrotation Yrotation Xrotation
							End Site
							{
								OFFSET 4.083176 0.000000 0.000000 
							}
						}
					}
				}
			}
			JOINT rCollar
			{
				OFFSET -3.470700 6.669187 -0.816635 
				CHANNELS 3 Yrotation Zrotation Xrotation
				JOINT rShldr
				{
					OFFSET -3.198488 0.000000 0.000000 
					CHANNELS 3 Zrotation Yrotation Xrotation
					JOINT rForeArm
					{
						OFFSET -10.139888 0.000000 0.000000 
						CHANNELS 3 Yrotation Zrotation Xrotation
						JOINT rHand
						{
							OFFSET -8.370511 0.000000 0.000000 
							CHANNELS 3 Zrotation Yrotation Xrotation
							End Site
							{
								OFFSET -4.083176 0.000000 0.000000 
							}
						}
					}
				}
			}
		}
	}
	JOINT lThigh
	{
		OFFSET 5.308129 -1.633274 1.361059 
		CHANNELS 3 Xrotation Zrotation Yrotation
		JOINT lShin
		{
			OFFSET -2.041588 -20.007561 0.000000 
			CHANNELS 3 Xrotation Zrotation Yrotation
			JOINT lFoot
			{
				OFFSET 0.000000 -19.190928 -1.224953 
				CHANNELS 3 Xrotation Yrotation Zrotation
				End Site
				{
					OFFSET 0.000000 -2.449906 4.627600 
				}
			}
		}
	}
	JOINT rThigh
	{
		OFFSET -5.308129 -1.633274 1.361059 
		CHANNELS 3 Xrotation Zrotation Yrotation
		JOINT rShin
		{
			OFFSET 2.041588 -20.007561 0.000000 
			CHANNELS 3 Xrotation Zrotation Yrotation
			JOINT rFoot
			{
				OFFSET 0.000000 -19.190928 -1.224953 
				CHANNELS 3 Xrotation Yrotation Zrotation
				End Site
				{
					OFFSET 0.000000 -2.449906 4.627600 
				}
			}
		}
	}
}
MOTION
Frames: 20
Frame Time: 0.016667
17.154732 40.625393 30.963062 5.150593 2.285665 12.256976 6.233543 1.795966 -4.696234 3.309571 9.749650 -2.348930 -12.645178 -3.278018 0.873940 11.483991 9.244757 1.362238 2.239031 1.334920 0.039219 -78.541824 8.745276 -162.568665 64.982292 -2.328511 2.948806 -178.346100 -176.592438 5.408581 -3.938843 -2.982474 0.045583 87.949387 9.491899 158.952789 -101.516457 2.480765 3.563109 -1.653298 3.397818 160.790009 23.269178 -10.135332 0.370488 60.996525 -0.038106 -0.011484 3.337914 12.294735 -0.718228 -45.159801 -9.188890 6.714163 37.195057 -0.015711 0.016710 -7.946132 5.564621 0.774548 
18.146423 40.723221 34.828056 3.505962 0.438631 11.833587 6.400283 1.970076 -4.476116 2.577203 8.507138 -2.294141 -12.645178 -3.278018 0.873940 11.059875 9.046940 1.573398 2.239031 1.334920 0.039219 -81.267128 13.907723 -164.537537 59.989861 -2.277873 2.873491 1.653298 -3.397819 -171.300400 -3.938843 -2.982474 0.045583 89.165733 8.538622 160.113647 -105.239449 2.473339 3.630198 -1.653298 3.397818 156.268539 19.172178 -6.490157 6.258052 71.916466 -0.038689 -0.006172 1.762292 14.571404 -0.447079 -44.136936 -8.231617 1.828746 44.339741 -0.016581 0.012286 -4.623933 11.071934 0.891777 
18.878290 39.926796 38.197853 1.260910 -2.440816 11.547488 6.783591 2.453428 -4.004975 1.427043 7.126718 -2.116786 -12.645178 -3.278018 0.873940 10.561487 8.291825 1.853552 2.239031 1.334920 0.039219 -84.682945 17.955088 -167.407806 53.278332 -2.199895 2.780247 1.653298 -3.397819 -166.007431 -3.938843 -2.982474 0.045583 89.479210 9.365803 160.850143 -107.985260 2.465076 3.679296 -1.653298 3.397818 151.893539 14.659708 -0.281128 11.396313 84.089417 -0.038806 -0.009711 1.126438 14.154259 -0.293773 -40.733395 -4.491954 1.606447 52.101021 -0.009962 -0.002288 -10.665057 4.563185 0.872645 
19.877609 39.781761 41.650768 -0.530245 -5.995839 11.617584 7.462770 3.185732 -3.254353 1.177367 5.535948 -1.721928 -12.645178 -3.278018 0.873940 10.071804 7.858579 1.909328 2.239031 1.334920 0.039219 -88.110909 19.885929 -169.512512 44.506233 -2.082520 2.673229 1.653298 -3.397819 -162.237900 -3.938843 -2.982474 0.045583 88.941734 10.456697 160.507034 -110.232697 2.456568 3.719153 -1.653895 3.407565 148.573227 9.728513 6.530464 14.658111 93.907631 -0.028917 -0.018399 -0.962797 7.744300 0.123560 -34.868767 -2.041198 -2.159405 54.818230 0.005487 0.007658 -18.455078 -0.676111 -0.223309 
20.896122 40.020805 45.174274 -0.393873 -7.363109 13.751233 7.612774 3.600878 -3.288305 1.597874 4.998065 -1.696370 -12.645178 -3.278018 0.873940 9.990702 8.111549 1.682140 2.239031 1.334920 0.039219 -90.902374 21.715273 -169.906525 37.659157 -1.980353 2.602870 1.653895 -3.407566 -160.607056 -3.938843 -2.982474 0.045583 87.745773 11.006944 159.306900 -111.551834 2.450848 3.742382 -1.653895 3.407565 148.670883 1.540645 9.340872 13.681242 101.058571 -0.039336 -0.025386 -0.186578 3.481044 0.010358 -29.626556 -2.334275 -4.422775 55.014107 0.013444 0.001643 -21.721552 -0.558308 -0.231252 
21.822596 40.158737 48.589973 0.049156 -6.621091 16.838949 7.169019 3.139377 -3.345090 1.175990 4.793917 -1.727406 -12.645178 -3.278018 0.873940 9.879376 8.412971 1.006849 2.239031 1.334920 0.039219 -91.496918 25.903465 -167.485657 35.822945 -1.951587 2.586118 1.653298 -3.397819 -161.319931 -3.938843 -2.982474 0.045583 86.694160 10.534860 156.780243 -112.401947 2.446879 3.757279 -1.653298 3.397818 150.311508 -7.379914 8.188542 11.454710 106.087555 -0.031506 -0.021189 -0.304235 0.590165 0.016534 -23.625141 -3.690160 -5.066074 54.506393 0.007839 -0.015820 -23.489918 -6.892706 -2.980434 
22.840321 40.447487 52.037613 0.589848 -6.601216 20.107298 6.777626 3.112902 -3.360182 1.068221 4.813621 -1.736019 -12.645178 -3.278018 0.873940 9.582536 8.478379 0.247546 2.239031 1.334920 0.039219 -91.682419 31.124968 -164.244965 38.108448 -1.987308 2.607109 1.653298 -3.397819 -165.157822 -3.938843 -2.982474 0.045583 84.833450 10.427852 154.117966 -112.792793 2.444980 3.764109 -1.653298 3.397818 152.811508 -16.381664 6.393372 9.620213 108.435410 -0.012903 -0.016283 1.927679 2.726161 -0.087159 -17.151966 -4.050884 -6.426564 52.453011 -0.009828 -0.005169 -23.714130 -8.593626 -3.739244 
23.973101 40.844585 55.533653 0.729563 -7.889993 21.803751 6.651954 3.336812 -2.569584 1.586714 4.402615 -1.303557 -12.645178 -3.278018 0.873940 9.716206 8.928389 -0.400628 2.239031 1.334920 0.039219 -90.978455 36.250385 -159.809509 41.566120 -2.039686 2.641526 1.653298 -3.397819 -169.894150 -3.938843 -2.982474 0.045583 82.667198 10.583397 151.420990 -112.763481 2.445124 3.763597 -1.653298 3.397818 156.854477 -24.005850 5.592639 9.039754 107.858582 -0.031803 -0.026757 -1.701856 -1.992186 -0.054415 -10.394725 -2.419941 -7.462957 48.679760 -0.009706 0.005062 -21.868141 -7.211919 -2.881794 
25.162813 41.306503 59.068604 0.098814 -8.779284 22.835165 6.555130 3.482996 -1.308557 1.742914 4.177761 -0.653864 -12.645178 -3.278018 0.873940 9.524514 9.277491 -1.219504 2.239031 1.334920 0.039219 -89.110054 41.376625 -155.184509 45.893299 -2.102151 2.688938 1.653298 -3.397819 -170.733994 -3.938843 -2.982474 0.045583 80.762520 10.523530 148.780197 -112.675537 2.445554 3.762061 -1.653298 3.397818 162.909164 -29.339123 5.534949 9.448437 104.530815 -0.021424 -0.032482 -2.560833 -1.907246 -0.066840 -2.888184 -0.867939 -8.352293 44.154720 -0.000074 0.000808 -17.769358 -4.291930 -1.356293 
26.485991 41.823658 62.671932 0.000000 -8.076172 23.916016 6.514181 3.211596 -0.199364 2.193801 4.342530 -0.087451 -12.645178 -3.278018 0.873940 9.777610 9.670354 -2.095932 2.239031 1.334920 0.039219 93.426605 134.184158 28.916866 50.396530 -2.163162 2.743126 1.653298 -3.397819 -169.054306 -3.938843 -2.982474 0.045583 79.740898 10.276173 147.001770 -113.242279 2.442738 3.772362 -1.653895 3.407565 170.467758 -32.643833 3.329628 10.316967 98.876465 -0.020642 -0.017234 -4.169390 -1.497821 -0.112223 4.700364 -1.814317 -10.248229 38.495438 -0.011220 0.004964 -11.009148 6.044451 1.186908 
27.581820 42.117008 66.320488 -3.855084 -11.371371 23.464813 6.835787 4.305231 1.902326 1.879211 3.835833 0.975741 -12.645178 -3.278018 0.873940 10.165954 10.464592 -2.797440 2.239031 1.334920 0.039219 95.409630 130.340912 30.444250 54.079391 -2.209769 2.790889 1.653298 -3.397819 -168.526962 -3.938843 -2.982474 0.045583 79.118996 10.192336 147.147400 -114.063057 2.438487 3.786628 178.346710 176.602173 -1.260762 -34.415268 9.536733 9.937344 93.349251 -0.019986 -0.031885 -5.120630 -2.764700 -0.236351 13.957011 3.981104 -7.215836 31.273241 0.007467 0.001639 2.149095 7.808857 -0.292407 
28.814005 42.593395 70.012970 -3.288580 -11.485467 22.792725 6.510673 4.075200 3.404343 2.448248 4.283211 1.745680 -12.645178 -3.278018 0.873940 10.972740 11.418545 -3.496797 2.239031 1.334920 0.039219 98.685387 127.345108 32.460243 58.846813 -2.265373 2.856977 1.653298 -3.397819 -170.499619 -3.938843 -2.982474 0.045583 78.301590 10.835934 148.875198 -113.838318 2.439671 3.782728 178.336349 176.593018 6.619518 -37.325958 9.517476 11.079374 85.164070 -0.008796 -0.009735 -5.073606 -1.882286 -0.184129 20.170179 3.767674 -6.334620 25.496912 0.008024 0.011546 4.522737 5.273496 -0.415748 
30.087475 42.871490 73.605125 -1.535743 -11.685369 22.673882 5.752763 3.468813 4.236504 2.976579 4.154563 2.188635 -12.645178 -3.278018 0.873940 11.587141 11.959785 -4.097080 2.239031 1.334920 0.039219 102.635666 125.116783 34.356457 63.858723 -2.317688 2.931564 -178.346100 -176.592438 6.053112 -3.938843 -2.982474 0.045583 79.414879 11.214903 151.577133 -114.317116 2.437129 3.791031 -1.663062 3.397222 -163.497665 -40.678940 8.757952 11.948510 75.484695 -0.007081 0.009019 -4.831914 -0.924443 -0.098672 24.089912 3.055827 -8.119477 22.809309 0.007799 0.011797 5.026718 -4.583987 0.408346 
31.310062 43.119347 77.275238 -1.767169 -13.441102 21.336454 5.460480 3.674701 5.654295 3.357987 4.045799 2.922834 -12.645178 -3.278018 0.873940 11.771904 12.829889 -4.607841 2.239031 1.334920 0.039219 106.330223 123.754028 36.486599 68.343277 -2.358840 3.001599 -178.356476 -176.601593 2.557598 -3.938843 -2.982474 0.045583 79.474251 11.982392 156.768738 -112.294456 2.447393 3.755399 -1.653298 3.397818 -155.665054 -41.957478 11.247172 11.829394 64.867302 -0.005777 -0.000354 -4.451672 -1.093028 -0.082145 28.393358 4.139153 -7.226185 21.128658 0.008135 0.003995 5.581590 -13.752254 1.335388 
32.643101 43.381672 80.849777 -2.226918 -15.252684 20.439547 5.147912 3.773823 6.580520 3.423502 3.255910 3.407802 -12.645178 -3.278018 0.873940 12.051338 13.046111 -5.015646 2.239031 1.334920 0.039219 108.418434 123.612152 37.082607 71.694580 -2.385947 3.055916 -178.356476 -176.601593 1.483379 -3.938843 -2.982474 0.045583 80.822937 12.360902 162.835815 -107.526001 2.466622 3.671113 -1.653298 3.397818 -148.614273 -42.065773 12.693298 9.771147 53.009899 -0.002111 -0.007225 -3.966731 -0.492538 -0.037243 32.175423 4.969852 -6.568804 20.463604 0.008390 0.016865 6.461418 -16.611624 1.869804 
34.010715 43.559311 84.355156 -2.151641 -15.799957 19.979763 4.949529 3.278770 7.266304 3.557756 2.378225 3.761381 -12.645178 -3.278018 0.873940 13.224364 14.132615 -5.071320 2.239031 1.334920 0.039219 -70.117943 54.553234 -142.995026 73.599884 -2.399926 3.087472 -178.356476 -176.601593 1.581036 -3.938843 -2.982474 0.045583 83.252182 13.230734 167.188522 -100.285233 2.482260 3.540833 -1.653895 3.407565 -139.532242 -40.881279 12.467314 7.775188 40.303574 0.007260 -0.005691 -1.893422 1.437204 0.036263 34.574276 4.432115 -7.189799 22.232460 0.004507 0.017634 8.172071 -14.496494 2.065563 
35.376362 43.580353 87.726929 -2.280481 -16.413473 19.852247 5.114522 3.015313 7.447628 3.976293 1.665904 3.866017 -12.645178 -3.278018 0.873940 14.216054 15.116305 -4.940075 2.239031 1.334920 0.039219 -71.581184 50.727131 -145.250763 73.746445 -2.400958 3.089918 -178.356476 -176.601593 2.889629 -3.938843 -2.982474 0.045583 85.586792 15.477446 171.032944 -90.719238 2.476640 3.386707 -1.653895 3.407565 -126.465843 -38.874889 12.108774 4.050111 28.223896 0.003941 -0.001505 1.212543 4.611737 -0.095466 34.766357 3.855180 -7.590285 27.656065 0.003327 0.028942 7.409838 -11.077516 1.433915 
36.645496 43.524334 91.100929 -2.050057 -15.791172 19.461895 4.877244 2.374194 7.429325 3.526267 1.276876 3.819111 -12.645178 -3.278018 0.873940 13.626411 13.741616 -5.488269 2.239031 1.334920 0.039219 -73.123474 46.270790 -147.507629 72.358994 -2.390941 3.066867 -178.355865 -176.591843 4.813456 -3.938843 -2.982474 0.045583 -91.321014 161.919113 -4.643238 -80.244209 2.440311 3.200775 -1.653895 3.407565 -124.600601 -35.759007 11.366386 2.809453 18.265005 0.006059 -0.006695 5.004084 6.002251 -0.524461 33.100830 2.205663 -7.678938 36.091312 0.006974 0.006614 6.144973 -7.827989 0.847064 
37.783531 43.252285 94.422348 -2.639219 -15.033587 19.043753 5.150842 2.353749 7.175225 3.253858 1.959729 3.685880 -12.645178 -3.278018 0.873940 12.993246 13.497809 -5.601679 2.239031 1.334920 0.039219 -75.780296 40.843529 -149.535278 69.730682 -2.370447 3.023894 -178.346100 -176.592438 6.365612 -3.938843 -2.982474 0.045583 -88.969223 157.895782 0.951690 -68.362816 2.359008 3.001511 -1.653298 3.397818 -129.834991 -32.271423 11.043195 4.212423 11.991173 0.009514 0.001874 7.812744 6.044199 -0.824525 30.827431 0.849020 -7.028298 46.207108 0.005919 0.006914 5.114097 -5.645892 0.513670 
38.892517 42.825600 97.731018 -3.526426 -12.886528 18.677809 5.510249 1.701092 6.863516 2.629317 2.429084 3.490736 -12.645178 -3.278018 0.873940 13.123645 14.220506 -5.292065 2.239031 1.334920 0.039219 -77.292656 34.707859 -150.412064 66.320808 -2.340961 2.969618 -178.346100 -176.592438 7.439830 -3.938843 -2.982474 0.045583 -86.051422 153.412720 5.747126 -55.476376 2.226630 2.809394 -1.653895 3.407565 -132.042007 -29.276749 9.296935 6.907663 11.433830 -0.002053 -0.006981 10.107249 2.923716 -0.531190 28.574757 -1.797464 -7.588033 56.772896 -0.003991 0.010104 3.648998 -5.063817 0.324892 
